# xmcd CD database file
# Copyright (C) 1993-1998 Ti Kan
#
# Track frame offsets:
#	150
#	18470
#	30830
#
# Disc length: 612 seconds
#
# Revision: 1
# Processed by: cddbd v1.4b41PL1 Copyright (c) Steve Scherf et al.
# Submitted via: CDValet v3.31 - Copyright (c) 1997 Greg Leichner
#
DISCID=14026203
DTITLE=Michelle Shocked  - Come A Long Way
DYEAR=1900
DGENRE=
TTITLE0=Come A Long Way
TTITLE1=Over The Waterfall (Live)
TTITLE2=Worth The Weight (Live)
EXTD=Mercury 866 603-2
EXTT0=
EXTT1=
EXTT2=
PLAYORDER=
